Coordinates
nRows=5
nColumns=38

# SIMM Motion File Header:
name Coordinates
datacolumns 38
datarows 5
otherdata 1
range 0.56650000000000000000 0.57050000000000001000

Units are S.I. units (second, meters, Newtons, ...)
Angles are in degrees.

endheader
time	pelvis_tilt	pelvis_list	pelvis_rotation	pelvis_tx	pelvis_ty	pelvis_tz	hip_flexion_r	hip_adduction_r	hip_rotation_r	knee_angle_r	ankle_angle_r	subtalar_angle_r	mtp_angle_r	hip_flexion_l	hip_adduction_l	hip_rotation_l	knee_angle_l	ankle_angle_l	subtalar_angle_l	mtp_angle_l	lumbar_extension	lumbar_bending	lumbar_rotation	arm_flex_r	arm_add_r	arm_rot_r	elbow_flex_r	pro_sup_r	wrist_flex_r	wrist_dev_r	arm_flex_l	arm_add_l	arm_rot_l	elbow_flex_l	pro_sup_l	wrist_flex_l	wrist_dev_l
      0.56650000000000000000	     -3.76343985362577450000	      2.78749683138473570000	     -0.64497544384681083000	      1.14217218063801250000	      0.97290861308541476000	     -0.42779126335933682000	    -24.16546085778225400000	      4.04354331356726430000	      7.20604375795576150000	    -55.70995984019794600000	    -22.96876308235243200000	     -0.00000000000004300797	      0.00000000000014462906	     31.02810945540357300000	      8.44721886379928400000	      8.42851413654859800000	     -6.04853138982329690000	     14.83207445164361200000	      0.00000000000000466010	      0.00000000000003145397	    -12.94603177340859000000	     -4.49997456123710290000	     17.39207960719095800000	    -21.59324734202724000000	    -30.45963775060050000000	     -5.53650753122488480000	    136.30812251121682000000	     86.01213548256389200000	     -0.00000000000000063322	     -0.00000000000000950828	    -57.32810065871648000000	     -8.64764542610291720000	    -22.96778663366559700000	    126.19770655639203000000	     96.34290090750587900000	     -0.00000000000000169388	     -0.00000000000001235661
      0.56750000000000000000	     -3.71331354472931570000	      2.75815736666136190000	     -0.57732586495115734000	      1.14215637014613410000	      0.97265358911733846000	     -0.42785574592484782000	    -23.93888004015865100000	      4.06482734646995070000	      6.94794919210189210000	    -56.55273200675824800000	    -22.85004961724033700000	     -0.00000000000004321191	      0.00000000000014543289	     30.89789523164797600000	      8.44750682943287320000	      8.41648829547736100000	     -5.97884188992877430000	     14.81958985822408300000	      0.00000000000000467380	      0.00000000000003162785	    -13.03807169915941900000	     -4.46738025154055140000	     17.22791348502985500000	    -21.63021060065103300000	    -30.35088789208344900000	     -5.47534718022516390000	    135.94365543603340000000	     85.97708060569421200000	     -0.00000000000000063302	     -0.00000000000000953557	    -57.04840657966610000000	     -8.67222063943092180000	    -22.89555380336092200000	    126.16552460231325000000	     96.34001719096185900000	     -0.00000000000000171105	     -0.00000000000001240531
      0.56850000000000001000	     -3.66435393376774950000	      2.73169972568573180000	     -0.51133459413207816000	      1.14213755675501650000	      0.97238902741197442000	     -0.42791815872848171000	    -23.70816309644746400000	      4.07901770901225100000	      6.68851803239444020000	    -57.39610811724544000000	    -22.72724851904962400000	     -0.00000000000004341606	      0.00000000000014623525	     30.77449042247898300000	      8.44985668396081200000	      8.39819174202805920000	     -5.93441463860789040000	     14.80284262930685400000	      0.00000000000000468492	      0.00000000000003180455	    -13.12832893288621800000	     -4.43804434822289370000	     17.06194921780653200000	    -21.66374728244498000000	    -30.23992568379164000000	     -5.41258190822550580000	    135.57248661537577000000	     85.94809462123942000000	     -0.00000000000000063297	     -0.00000000000000955863	    -56.76705778269380400000	     -8.69835386377963720000	    -22.82262968547856700000	    126.13242551065834000000	     96.33525107241902700000	     -0.00000000000000172700	     -0.00000000000001245568
      0.56950000000000001000	     -3.61636497880908970000	      2.70808387246633320000	     -0.44706181417787083000	      1.14211592654214520000	      0.97211526310959595000	     -0.42797839098063722000	    -23.47370384298291800000	      4.08622911450773870000	      6.42830617448309290000	    -58.23975780941090400000	    -22.60002676053079900000	     -0.00000000000004362059	      0.00000000000014703945	     30.65760711440369200000	      8.45421217137980460000	      8.37366010947470230000	     -5.91501087834898340000	     14.78143537714021800000	      0.00000000000000469755	      0.00000000000003197880	    -13.21701158360657200000	     -4.41194888575147100000	     16.89427127203909900000	    -21.69388720512625200000	    -30.12681932237965700000	     -5.34838573505103020000	    135.19469487316476000000	     85.92537335684275500000	     -0.00000000000000063290	     -0.00000000000000958699	    -56.48410516806712400000	     -8.72605917264498030000	    -22.74903196341858800000	    126.09845291862952000000	     96.32854195425849800000	     -0.00000000000000174327	     -0.00000000000001250558
      0.57050000000000001000	     -3.56918959840362190000	      2.68726555231299270000	     -0.38455527804761813000	      1.14209165240046140000	      0.97183256168739796000	     -0.42803635710074434000	    -23.23584281546779800000	      4.08659142565548980000	      6.16784117357543860000	    -59.08337544681774000000	    -22.46807252192905200000	     -0.00000000000004382543	      0.00000000000014784506	     30.54700160655967900000	      8.46051660218110160000	      8.34293662896793190000	     -5.92038104229490170000	     14.75496088068109700000	      0.00000000000000471190	      0.00000000000003214828	    -13.30428483524724500000	     -4.38906707841268600000	     16.72495832644425900000	    -21.72067556742637300000	    -30.01163191029022300000	     -5.28293446958356230000	    134.81036392367218000000	     85.90910228774544100000	     -0.00000000000000063351	     -0.00000000000000961854	    -56.19960175983796800000	     -8.75535237906655080000	    -22.67477564425895400000	    126.06364350954286000000	     96.31983000110284400000	     -0.00000000000000176047	     -0.00000000000001255535
